<?xml version="1.0" encoding="UTF-8"?>
<svg version="1.1" xmlns="http://www.w3.org/2000/svg" viewBox="0 0 284 371">
<path d="M0 0 C25.08 0 50.16 0 76 0 C76 18.26735675 71.09915539 33.45070845 58.2265625 46.796875 C57.49179687 47.52390625 56.75703125 48.2509375 56 49 C55.11441406 49.93585937 55.11441406 49.93585937 54.2109375 50.890625 C50.20688743 54.80648013 45.7072704 57.32034104 40.7109375 59.76953125 C40.0070137 60.11761337 39.3030899 60.4656955 38.57783508 60.82432556 C31.88071753 64.10848943 25.09387574 67.17243767 18.25897217 70.15719604 C16.11126483 71.09581737 13.96687616 72.04174588 11.82275391 72.98852539 C4.01630324 76.42580081 -3.82162995 79.77138459 -11.70703125 83.0234375 C-14.07985363 84.01035348 -16.45213889 84.99855055 -18.8243103 85.98703003 C-21.06956543 86.91459865 -23.32295283 87.81989022 -25.57739258 88.72485352 C-33.41933764 91.94394318 -39.63274424 95.22208762 -45 102 C-45.51546387 102.62302002 -46.03092773 103.24604004 -46.56201172 103.88793945 C-68.15589875 130.9950842 -77.90308267 165.66073695 -74.48217773 200.03979492 C-71.55605529 225.53182906 -61.23299906 249.2380881 -45 269 C-44.53207031 269.63542725 -44.06414062 270.27085449 -43.58203125 270.92553711 C-38.75808652 277.0869641 -33.39711305 279.63971053 -26.25 282.5625 C-24.46529739 283.32411679 -22.6806015 284.08574949 -20.89613342 284.84791565 C-18.96952721 285.66636097 -17.03887934 286.47451925 -15.10693359 287.28027344 C-10.77443706 289.0894306 -6.45862202 290.93651853 -2.14453125 292.7890625 C-1.39721741 293.1097168 -0.64990356 293.43037109 0.12005615 293.76074219 C2.39267 294.73601962 4.66508802 295.71175233 6.9375 296.6875 C9.91775747 297.96663883 12.89827988 299.24515855 15.87890625 300.5234375 C16.58774963 300.82773682 17.29659302 301.13203613 18.0269165 301.44555664 C22.08133887 303.18437124 26.14459853 304.90001638 30.21484375 306.6015625 C48.0938959 314.1824238 62.24720114 324.61569687 70.71484375 342.75390625 C74.36826647 351.98185238 76 359.9710586 76 370 C50.92 370 25.84 370 0 370 C-0.99 362.08 -1.98 354.16 -3 346 C-7.70266044 325.08126906 -16.25545721 305.57174305 -30 289 C-30.53850586 288.29109619 -31.07701172 287.58219238 -31.63183594 286.85180664 C-36.94091822 280.25673747 -42.48742649 277.3311005 -50.25 274.1875 C-52.05086256 273.42303865 -53.85171939 272.65856349 -55.6522522 271.89332581 C-57.51898468 271.10465489 -59.39002179 270.32718263 -61.26269531 269.55273438 C-67.24313751 267.07632701 -73.17942975 264.49616374 -79.125 261.9375 C-81.44763055 260.94204049 -83.77054629 259.94724614 -86.09375 258.953125 C-87.23328125 258.46521484 -88.3728125 257.97730469 -89.546875 257.47460938 C-91.86311654 256.48549039 -94.18084772 255.499853 -96.5 254.51757812 C-99.87957949 253.08468209 -103.25269729 251.63742359 -106.625 250.1875 C-107.62547363 249.76782959 -108.62594727 249.34815918 -109.65673828 248.91577148 C-116.38634622 246.00242012 -122.13739151 242.38992563 -128 238 C-129.010625 237.278125 -130.02125 236.55625 -131.0625 235.8125 C-143.023684 225.44840591 -150.69440153 208.66718162 -152 193 C-153.02434617 173.71231116 -148.42799855 155.87218973 -135.828125 140.9453125 C-124.58670782 128.98329165 -110.90236219 122.82899048 -96.02658081 116.57910156 C-93.25913345 115.41505287 -90.49739686 114.23825621 -87.73657227 113.05859375 C-79.7081324 109.63549132 -71.66926083 106.24616605 -63.5660553 103.00343323 C-60.55379925 101.79694728 -57.54886789 100.57277058 -54.54403687 99.34793091 C-52.50139896 98.52572084 -50.44865727 97.73416753 -48.39379883 96.94311523 C-39.87922481 93.54622428 -34.47649697 89.37081779 -29 82 C-28.50669189 81.35708008 -28.01338379 80.71416016 -27.50512695 80.05175781 C-26.25491652 78.35894686 -25.08416452 76.63929122 -23.9375 74.875 C-23.52540283 74.2473877 -23.11330566 73.61977539 -22.6887207 72.97314453 C-7.9796034 50.06331873 -2.7192756 27.19275602 0 0 Z " fill="#000000" transform="translate(205,1)"/>
<path d="M0 0 C25.08 0 50.16 0 76 0 C76 30.74428934 74.2440688 52.85072239 52.7578125 75.34765625 C43.98871885 83.72860969 34.03213568 89.40776432 22.5 92.9375 C21.86118896 93.13698242 21.22237793 93.33646484 20.56420898 93.54199219 C13.60227652 95.47763541 7.54433734 95.46111876 0 96 C0 64.32 0 32.64 0 0 Z " fill="#000000" transform="translate(0,0)"/>
<path d="M0 0 C19.81715969 0 36.1481931 5.56024944 51 19 C51.76957031 19.67675781 52.53914063 20.35351562 53.33203125 21.05078125 C67.84151339 34.57154229 74.07477832 52.74778319 76 72 C76 78.93 76 85.86 76 93 C50.92 93 25.84 93 0 93 C0 62.31 0 31.62 0 0 Z " fill="#000000" transform="translate(0,278)"/>
</svg>